<svg width="20" height="20" fill="none" xmlns="http://www.w3.org/2000/svg"><g clip-path="url('#clip0_54921_1432')"><path d="M12.5 2.048a8.333 8.333 0 1 0 4.84 4.001m-3.174-1.257h.005M8.75 18.24v-1.836c0-.1.036-.195.1-.271l2.072-2.417a.417.417 0 0 0-.11-.633l-2.38-1.36a.417.417 0 0 1-.155-.155l-1.552-2.72a.417.417 0 0 0-.399-.208l-4.606.41M17.5 5c0 1.841-1.667 3.333-3.334 5-1.666-1.667-3.333-3.159-3.333-5A3.333 3.333 0 0 1 17.5 5Zm-3.125-.208a.208.208 0 1 1-.417 0 .208.208 0 0 1 .417 0Z" stroke="#BDBDBE" stroke-width="2" stroke-linecap="round" stroke-linejoin="round"/></g><defs><clipPath id="clip0_54921_1432"><path fill="#fff" d="M0 0h20v20H0z"/></clipPath></defs></svg>