<svg width="20" height="20" fill="none" xmlns="http://www.w3.org/2000/svg"><path d="M6.054 5.57c.88 0 1.765-.412 2.327-1.342C9.387 2.566 8.353.248 6.422.017A3.739 3.739 0 0 0 6.027 0c-.16 0-.323.006-.42.016-1.23.131-2.29 1.336-2.37 2.556C3.113 4.405 4.575 5.57 6.053 5.57ZM14.64 11.367c-.653 0-1.378.18-1.94.32-.974.245-2.375.874-3.412.874a2.04 2.04 0 0 1-.317-.022C6.76 12.2 6.702 9.895 6.062 8.2c-.262-.69-.797-2.06-1.685-2.06a.9.9 0 0 0-.141.011c-.913.146-1.724 1.136-2.068 1.943-1.247 2.923-.06 7.17 2.383 9.158-.094.816-.265 1.63-.303 2.45.02.126.152.289.287.296h7.814c.219-.002.335-.173.365-.376l-.266-1.941c.377-.23.783-.402 1.159-.635 1.44-.895 2.886-2.453 2.718-4.285-.1-1.092-.833-1.396-1.683-1.396l-.001.001Zm-1.866 4.328c-.14.087-.309.174-.487.266-.201.103-.429.22-.659.36l-.89.542.141 1.036.07.51H5.99l.005-.029c.046-.304.093-.62.13-.943l.101-.87-.677-.55c-.922-.75-1.667-1.99-2.043-3.403-.377-1.414-.334-2.833.118-3.892.14-.328.378-.63.58-.814.095.173.22.442.378.86.114.303.215.658.32 1.035.22.783.47 1.672.966 2.45.667 1.045 1.631 1.67 2.866 1.858.177.027.363.04.554.04.956 0 1.965-.334 2.855-.63.35-.116.683-.226.94-.29.461-.115 1.092-.274 1.558-.274.042 0 .08.002.11.004.061 1.072-1.02 2.139-1.978 2.733h.002Z" fill="#BDBDBE"/><path d="M8.23 6.378c-.54.021-1.151.308-1.519.703l-.01.05c.231.538.433 1.089.616 1.646.336 1.023.424 2.427 1.662 2.74.888.225 2.052-.51 2.945-.648l.093-.064-1.24-2.413 3.087-2.327c.898-.944.17-2.499-1.115-2.408-.291.02-.497.126-.736.276-.476.3-3.183 2.48-3.393 2.485-.108.003-.237-.046-.39-.04ZM18.663 10.065c-.314-.257-.577-.292-.959-.363a52.135 52.135 0 0 0-2.837-.43c-.255-.033-.478-.076-.702-.076-.19 0-.382.031-.593.128-.54.248-.738.844-1.01 1.328.484-.038.97-.198 1.462-.25.19-.02.382-.03.574-.03 1.025 0 2.043.316 2.49 1.352.059.136.194.744.223.772.05.044.163.062.298.062.26 0 .601-.065.73-.124.936-.425 1.125-1.712.324-2.369Z" fill="#BDBDBE"/></svg>