<svg width="20" height="20" fill="none" xmlns="http://www.w3.org/2000/svg"><g clip-path="url('#clip0_54921_1443')" fill="#BDBDBE"><path d="M8.77 7.66c.322.066.641.097.954.097 1.1 0 2.117-.394 2.884-1.136 1.15-1.112 1.509-2.748.915-4.167-.497-1.188-1.658-2.095-3.03-2.369-1.27-.253-2.551.063-3.516.867a3.824 3.824 0 0 0-1.204 4.12c.433 1.349 1.525 2.292 2.997 2.589ZM7.306 3.675c.067-.883.697-1.697 1.568-2.026.27-.102.546-.152.82-.152.478 0 .952.153 1.385.454.747.52 1.112 1.42.953 2.351A2.318 2.318 0 0 1 10.5 6.123c-.91.319-1.604.074-2.026-.188-.766-.476-1.235-1.385-1.168-2.26ZM12.349 8.598H7.063a4.132 4.132 0 0 0-4.122 4.134v1.97c0 .485.406.877.906.877h1.091c.061 1.281.67 2.476 1.7 3.315a4.922 4.922 0 0 0 3.116 1.107c.312 0 .626-.03.939-.09 2.162-.41 3.755-2.207 3.883-4.33l.133-.001h.086c.047 0 .094 0 .142.002l.092.001v-.003h.536c.5 0 .905-.393.905-.878v-1.97A4.132 4.132 0 0 0 12.35 8.6Zm-6.678 4.228a5.587 5.587 0 0 0-.49.998h-.427v-1.093c0-1.311 1.036-2.378 2.31-2.378h5.286c1.273 0 2.31 1.067 2.31 2.378v1.093h-.344c-.342-1.047-1.135-1.986-2.182-2.562a4.95 4.95 0 0 0-3.56-.468c-1.216.294-2.247 1.015-2.903 2.032Zm7.054 1.69h-1.357c-.303-.585-.915-.952-1.617-.952-.7 0-1.312.367-1.615.953H6.701a3.059 3.059 0 0 1 1.086-1.594 3.304 3.304 0 0 1 2.735-.573c1.034.238 1.914 1.056 2.244 2.035a.901.901 0 0 0-.041.131Zm-3.819 3.769c-1.073-.307-1.922-1.138-2.209-2.165h1.428c.178.37.497.61.782.775v1.39Zm.97-2.865c-.011.018-.041.065-.17.05-.097-.012-.108-.104-.109-.143 0-.041.01-.14.121-.155.112-.016.141.028.154.046a.2.2 0 0 1 .004.203Zm.721 2.863v-1.385c.283-.16.601-.397.782-.777h1.428c-.285 1.021-1.134 1.852-2.21 2.163v-.001Z"/></g><defs><clipPath id="clip0_54921_1443"><path fill="#fff" d="M0 0h20v20H0z"/></clipPath></defs></svg>