<svg width="16" height="16" fill="none" xmlns="http://www.w3.org/2000/svg"><path d="M3.333 5.333a1.333 1.333 0 1 1 0-2.666 1.333 1.333 0 0 1 0 2.666Zm0 0v5.334M8 5.333a1.333 1.333 0 1 1 0-2.666 1.333 1.333 0 0 1 0 2.666Zm0 0v5.334m-4.667 0a1.333 1.333 0 1 1 0 2.666 1.333 1.333 0 0 1 0-2.666Zm4.667 0a1.333 1.333 0 1 1 0 2.666 1.333 1.333 0 0 1 0-2.666ZM11.333 4A1.333 1.333 0 1 0 14 4a1.333 1.333 0 0 0-2.667 0Z" stroke="#FEFEFF" stroke-linecap="round" stroke-linejoin="round"/><path d="M12.667 5.333v1.334A1.333 1.333 0 0 1 11.334 8h-8" stroke="#FEFEFF" stroke-linecap="round" stroke-linejoin="round"/></svg>