<svg width="16" height="16" fill="none" xmlns="http://www.w3.org/2000/svg"><path d="M11.926 6v2.697c.745.693 1.514 1.37 2.262 2.064.175.162.674.574.762.746.208.406-.279.827-.71.608-.768-.659-1.497-1.36-2.25-2.036l-.064-.029v3.243c0 .818-1.06 1.697-1.951 1.686-1.29-.054-2.645.067-3.928 0-.848-.045-1.606-.55-1.872-1.291-.03-.087-.1-.314-.1-.395V10.05l-.064.03-2.233 2.032c-.493.243-1.017-.283-.658-.699l2.955-2.697V5.999l-.064.03-2.247 2.039c-.438.211-.936-.217-.706-.626.974-.943 2.01-1.84 3.006-2.767.034-1.282-.184-2.396.75-3.464C5.822.056 7.16-.062 8.693.02c1.512.082 2.84 1.103 3.154 2.457.166.718.028 1.468.09 2.197l2.87 2.6c.453.388.02 1.028-.554.797-.778-.656-1.506-1.366-2.263-2.043l-.065-.03Zm-1.024-1.675c-.02-.857.145-1.652-.41-2.402C9.755.925 8.563.882 7.35.956c-1.061.064-1.978.784-2.198 1.733-.12.52-.02 1.104-.053 1.636a2.76 2.76 0 0 1 1.524-.566c.97-.05 2.013.022 2.985.023.489.06.915.264 1.294.543ZM6.609 4.7c-.914.107-1.46.882-1.511 1.677-.088 1.382.068 2.839 0 4.228.041.45.332.899.865.944h4.076c.514-.045.826-.483.864-.924-.08-1.402.102-2.896 0-4.286-.06-.796-.664-1.59-1.59-1.646-.876-.052-1.82.036-2.704.007Zm4.293 7.57a2.376 2.376 0 0 1-.842.215c-1.353.071-2.78-.056-4.14 0a2.473 2.473 0 0 1-.821-.215v.964c0 .43.58.783 1.012.81 1.228.072 2.542-.058 3.779 0 .439.02 1.012-.427 1.012-.83v-.944Z" fill="#FEFEFF"/></svg>