<svg width="150" height="18" fill="none" xmlns="http://www.w3.org/2000/svg"><g clip-path="url('#clip0_54699_82')" fill="#FEFEFF"><path d="M56.895 5.599H43.632v2.43h13.263c-.03.096.096.21.096.244v3.887c0 .01-.134.147-.144.147H43.632v2.43h13.263v4.373H39.403c.031-.095-.096-.21-.096-.243v-17.4c0-.01.135-.146.144-.146h17.396c.01 0 .144.135.144.146v3.888c0 .031-.127.148-.096.244ZM147.479 1.321c.931.133 2.056 1.213 2.327 2.116.25.831.227 5.18.113 6.184-.134 1.18-1.284 2.475-2.463 2.66-.352.055-.714-.023-1.037.024-.133.02-.165-.055-.142.146l3.364 6.66h-4.47l-3.748-6.804h-4.278v6.562c0 .03-.127.148-.096.243h-4.133V1.321h14.563ZM145.7 5.599h-8.553v2.43h8.553V5.6ZM105.719 7.153h-4.133V5.6h-9.707v9.136h9.707v-1.554h4.133c.358 2.487.186 5.531-2.847 5.918-3.917-.188-8.123.29-12.006.015-1.975-.138-3.095-1.385-3.22-3.353-.24-3.753.179-7.777.017-11.559.135-1.424 1.276-2.75 2.724-2.883 4.027-.373 8.608.29 12.693 0 2.854.474 2.977 3.472 2.639 5.836v-.002ZM17.588 5.599H4.23v2.43h13.36c-.032.096.095.21.095.244v3.887c0 .01-.134.147-.144.147H4.373a.937.937 0 0 0-.144.146v6.657H.144A.937.937 0 0 1 0 18.964V1.467c0-.01.135-.146.144-.146H17.54c.01 0 .144.135.144.146v3.888c0 .031-.127.148-.096.244ZM64.97 1.321c1.167 1.91 2.478 3.733 3.796 5.538l3.94-5.538h5.047l-6.024 8.893 6.024 8.894h-5.047l-3.94-5.635-3.941 5.635h-4.902c-.012 0-.193-.14-.099-.193l5.993-8.78-6.039-8.814H64.97ZM108.746 19.108l7.974-17.693 4.812-.102.15.069 8.31 17.53c.085.06-.09.198-.104.198h-4.469L119.22 6.377l-6.006 12.733h-4.47l.002-.002ZM24.7 1.321v13.414h11.678c.01 0 .145.135.145.147v4.082c0 .01-.135.146-.145.146H20.473V1.321h4.23-.003ZM80.634 19.108V1.321h4.085c.01 0 .145.135.145.146v17.495c0 .01-.135.146-.145.146h-4.085Z"/></g><defs><clipPath id="clip0_54699_82"><path fill="#fff" d="M0 0h150v18H0z"/></clipPath></defs></svg>