<svg width="16" height="16" fill="none" xmlns="http://www.w3.org/2000/svg"><path d="M5.333 14.667v-1.334m1-3.333V4.667m4.333 10v-1.334m-1-3.333V4.667m-3.8 8.666h4.267c1.12 0 1.68 0 2.108-.218a2 2 0 0 0 .874-.874c.218-.428.218-.988.218-2.108v-5.6c0-1.12 0-1.68-.218-2.108a2 2 0 0 0-.874-.874c-.428-.218-.988-.218-2.108-.218H5.867c-1.12 0-1.68 0-2.108.218a2 2 0 0 0-.875.874c-.217.428-.217.988-.217 2.108v5.6c0 1.12 0 1.68.217 2.108a2 2 0 0 0 .875.874c.427.218.987.218 2.108.218Z" stroke="#FEFEFF" stroke-linecap="round" stroke-linejoin="round"/></svg>